<svg width="128" height="128" viewBox="0 0 128 128" fill="none" xmlns="http://www.w3.org/2000/svg">
<path d="M112 44C112 31.4666 101.867 21.3333 89.3333 21.3333C86.4 21.3333 83.7333 21.8666 81.0666 22.9333C77.0666 17.0666 70.4 13.3333 62.6666 13.3333C55.4666 13.3333 48.8 16.8 44.8 22.1333C42.6666 21.6 40.8 21.3333 38.6667 21.3333C26.1333 21.3333 16 31.4666 16 44C16 54.1333 22.6667 62.9333 32 65.5999V114.667H96V65.5999C105.333 62.9333 112 54.1333 112 44Z" fill="#DF6751"/>
<path d="M48 104C46.4 104 45.3333 102.667 45.3333 101.333V77.3333C45.3333 76 46.4 74.6666 48 74.6666C49.3333 74.6666 50.6666 75.7333 50.6666 77.3333V101.333C50.6666 102.667 49.6 104 48 104ZM66.6666 101.333V77.3333C66.6666 76 65.6 74.6666 64 74.6666C62.6666 74.6666 61.3333 75.7333 61.3333 77.3333V101.333C61.3333 102.667 62.4 104 64 104C65.6 104 66.6666 102.667 66.6666 101.333ZM82.6666 101.333V77.3333C82.6666 76 81.6 74.6666 80 74.6666C78.6666 74.6666 77.3333 75.7333 77.3333 77.3333V101.333C77.3333 102.667 78.4 104 80 104C81.6 104 82.6666 102.667 82.6666 101.333Z" fill="white"/>
<path d="M32 98.6666H96V114.667H32V98.6666Z" fill="#DF6751"/>
</svg>
